<?xml version="1.0" standalone="no"?>
<!DOCTYPE svg PUBLIC "-//W3C//DTD SVG 20010904//EN"
 "http://www.w3.org/TR/2001/REC-SVG-20010904/DTD/svg10.dtd">
<svg version="1.0" xmlns="http://www.w3.org/2000/svg"
 width="5120.000000pt" height="2880.000000pt" viewBox="0 0 5120.000000 2880.000000"
 preserveAspectRatio="xMidYMid meet">

<g transform="translate(0.000000,2880.000000) scale(0.100000,-0.100000)"
fill="#000000" stroke="none">
<path d="M0 14400 l0 -14400 25600 0 25600 0 0 14400 0 14400 -25600 0 -25600
0 0 -14400z m25491 10060 c6 0 9 -7 5 -15 -3 -8 -2 -15 2 -15 4 0 7 -18 7 -40
0 -22 -4 -40 -8 -40 -5 0 -5 -6 0 -12 6 -7 11 -20 11 -28 1 -8 3 -37 7 -65 3
-27 7 -66 9 -85 8 -76 16 -98 42 -104 13 -4 24 -13 24 -22 0 -9 5 -12 12 -8 7
5 9 2 5 -9 -6 -16 13 -67 26 -67 4 0 7 -7 7 -15 0 -9 6 -12 15 -8 9 3 15 2 13
-3 -2 -5 1 -10 6 -11 11 -2 36 -51 36 -69 0 -8 7 -14 15 -14 8 0 15 -7 15 -15
0 -8 5 -15 11 -15 14 0 48 -41 49 -58 0 -9 7 -11 20 -7 14 5 20 2 20 -9 0 -14
12 -20 33 -17 4 0 7 -5 7 -12 0 -19 48 -59 53 -44 3 8 10 7 24 -5 11 -10 24
-18 30 -18 16 0 24 -30 13 -48 -9 -16 -9 -16 -10 1 0 12 -8 17 -26 17 -14 0
-23 4 -19 10 3 6 0 10 -8 10 -26 0 -100 44 -105 62 -2 9 -10 14 -18 11 -8 -3
-14 1 -14 10 0 9 -9 19 -20 22 -11 3 -20 11 -20 16 0 5 -7 9 -15 9 -9 0 -15 9
-16 23 0 18 -2 19 -7 4 -7 -16 -8 -16 -23 1 -8 10 -14 23 -11 30 2 7 -6 12
-20 12 -18 0 -20 2 -8 10 13 9 13 10 0 11 -8 1 -18 1 -22 0 -4 0 -10 15 -14
34 -4 26 -11 35 -26 35 -10 0 -17 4 -14 8 3 5 -4 15 -15 22 -10 8 -19 26 -19
40 0 17 -3 21 -9 12 -5 -9 -13 0 -24 30 -10 24 -17 52 -17 61 0 10 -9 37 -20
59 -11 23 -20 47 -20 54 0 6 -7 17 -15 24 -8 7 -12 16 -9 21 3 5 2 15 -3 22
-12 18 -15 187 -3 187 6 0 10 5 10 10 0 6 6 17 13 24 10 12 13 11 19 -5 4 -10
12 -19 19 -19z m574 -880 c10 -11 22 -20 27 -20 5 0 16 -7 25 -15 8 -8 19 -13
24 -10 5 4 9 1 9 -5 0 -7 6 -10 13 -7 6 2 35 -8 62 -23 28 -15 53 -28 58 -29
26 -3 65 -16 81 -27 10 -7 25 -10 32 -7 8 3 14 0 14 -7 0 -7 7 -10 15 -6 8 3
15 1 15 -4 0 -6 9 -10 19 -10 11 0 23 -4 26 -10 3 -5 17 -10 29 -10 13 0 29
-7 36 -15 7 -8 16 -13 20 -10 4 3 39 -7 76 -21 38 -14 80 -28 94 -31 14 -3 31
-10 38 -16 7 -5 22 -11 35 -13 12 -1 103 -23 202 -49 99 -25 190 -48 202 -51
12 -2 33 -8 47 -14 13 -5 26 -7 28 -5 2 2 25 -2 51 -10 26 -8 47 -11 47 -7 0
4 4 2 8 -3 4 -6 45 -19 92 -29 176 -38 285 -63 300 -69 8 -3 51 -13 95 -23 44
-10 85 -19 90 -21 6 -2 30 -7 55 -11 25 -5 63 -14 85 -21 22 -6 99 -25 170
-41 72 -17 200 -48 285 -70 157 -40 547 -139 565 -144 6 -2 24 -6 40 -10 17
-4 50 -14 75 -21 25 -8 122 -34 215 -60 407 -111 1300 -392 1505 -472 14 -6
68 -25 120 -43 259 -88 899 -336 1190 -460 1231 -526 2358 -1134 3430 -1850
485 -324 904 -629 1345 -979 232 -184 691 -568 616 -515 -9 6 -86 69 -171 140
-664 554 -1370 1072 -2070 1520 -167 107 -285 182 -361 227 -41 24 -126 76
-190 115 -64 38 -210 124 -325 189 -232 133 -247 141 -424 238 -69 37 -147 80
-175 95 -355 193 -979 497 -1365 665 -362 157 -722 304 -1090 445 -74 28 -383
139 -570 204 -219 77 -662 219 -875 281 -82 24 -190 55 -240 70 -168 50 -378
107 -695 189 -96 25 -184 48 -195 51 -262 64 -715 171 -847 200 -31 7 -62 16
-68 20 -7 4 -24 9 -39 11 -47 5 -85 14 -124 29 -20 8 -53 15 -73 15 -19 0 -45
5 -57 12 -12 7 -33 14 -47 16 -14 1 -54 12 -90 24 -36 11 -78 21 -95 23 -16 2
-43 8 -60 15 -16 6 -57 17 -90 25 -33 7 -94 22 -135 33 -41 11 -78 18 -82 16
-4 -2 -9 0 -12 5 -3 5 -22 12 -42 16 -20 3 -44 10 -53 15 -9 4 -41 13 -71 20
-30 7 -86 23 -123 36 -37 13 -82 26 -100 29 -84 15 -347 103 -347 117 0 5 -6
8 -12 7 -7 -1 -26 3 -41 9 -16 7 -34 12 -42 12 -8 0 -17 5 -20 10 -4 6 -10 8
-15 5 -4 -3 -13 2 -20 10 -7 8 -20 15 -29 15 -9 0 -25 6 -36 14 -11 7 -24 14
-30 15 -17 1 -75 35 -75 43 0 5 -7 8 -15 8 -17 0 -18 2 -9 24 8 21 17 20 39
-4z m9485 -61 c0 -4 -6 -11 -13 -17 -9 -8 -16 -6 -25 8 -11 18 -9 20 13 18 14
-1 25 -5 25 -9z m47 -5 c10 -9 19 -12 25 -6 12 12 58 3 64 -13 3 -7 16 -11 30
-9 13 1 24 -2 24 -8 0 -6 7 -8 15 -5 8 4 17 2 20 -4 4 -5 11 -7 16 -3 5 3 16
1 23 -5 7 -6 26 -12 42 -14 16 -2 44 -11 63 -20 18 -9 63 -24 99 -33 36 -9 82
-24 101 -32 20 -9 39 -17 44 -18 4 -1 10 -3 15 -4 4 -2 12 -4 17 -5 6 -1 17
-4 25 -8 8 -3 40 -13 70 -24 30 -10 58 -22 62 -28 4 -5 8 -7 8 -2 0 4 10 1 23
-7 12 -8 38 -17 57 -21 19 -4 45 -13 57 -21 11 -7 33 -15 48 -18 15 -3 32 -9
38 -13 7 -5 39 -17 72 -28 33 -11 62 -22 65 -25 6 -7 139 -59 160 -62 8 -2 18
-7 21 -11 4 -5 18 -10 32 -10 14 -1 25 -6 24 -11 -1 -4 9 -10 22 -12 13 -3 38
-13 55 -23 17 -10 46 -22 64 -26 17 -3 32 -11 32 -16 0 -5 9 -9 20 -9 11 0 20
-4 20 -10 0 -5 11 -10 25 -10 14 0 25 -5 25 -12 0 -6 3 -9 6 -5 9 8 64 -21 64
-34 0 -6 5 -7 10 -4 6 4 40 -7 75 -24 35 -17 69 -31 75 -31 6 0 22 -7 35 -16
13 -9 29 -13 35 -9 5 3 10 -1 10 -9 0 -9 3 -15 8 -14 4 1 21 -6 39 -15 18 -9
39 -17 48 -17 8 0 15 -5 15 -12 0 -6 3 -8 7 -5 3 4 12 2 20 -4 7 -6 13 -8 13
-5 0 4 7 0 16 -8 8 -9 24 -16 35 -16 10 0 19 -4 19 -9 0 -5 10 -11 23 -15 13
-3 40 -16 59 -30 20 -13 38 -22 41 -20 3 3 20 -4 38 -16 19 -11 43 -23 54 -27
17 -5 210 -103 305 -153 46 -24 65 -34 145 -73 44 -22 82 -43 85 -47 3 -4 28
-18 55 -32 92 -47 160 -83 165 -88 3 -3 30 -18 60 -33 30 -15 78 -41 105 -57
98 -57 150 -84 158 -82 4 1 7 -3 7 -9 0 -5 4 -8 9 -5 5 3 14 -1 21 -9 7 -8 19
-15 26 -15 8 0 14 -4 14 -9 0 -5 10 -13 23 -17 12 -4 24 -9 27 -13 5 -6 35
-23 100 -58 19 -10 37 -20 40 -23 5 -5 32 -21 75 -45 11 -6 38 -22 60 -36 22
-14 48 -28 58 -32 9 -3 17 -11 17 -17 0 -6 4 -9 9 -5 5 3 17 -3 27 -12 10 -10
20 -18 23 -18 6 -1 32 -15 73 -40 9 -5 35 -20 58 -33 23 -12 51 -31 63 -42 12
-11 38 -28 59 -37 21 -9 38 -20 38 -24 0 -3 14 -12 30 -19 17 -7 30 -16 30
-21 0 -5 12 -12 27 -15 15 -4 32 -11 38 -16 5 -5 21 -17 34 -28 13 -11 32 -22
42 -25 11 -4 19 -11 19 -16 0 -6 4 -8 9 -5 5 3 11 0 14 -7 2 -7 25 -23 51 -35
25 -13 46 -28 46 -33 0 -6 4 -8 9 -5 4 3 16 -3 26 -14 10 -11 23 -20 29 -20 7
0 27 -13 46 -30 19 -16 38 -29 43 -30 11 0 88 -52 117 -78 14 -12 35 -25 48
-28 12 -4 22 -10 22 -15 0 -5 3 -8 8 -6 7 2 15 -4 61 -43 10 -8 25 -19 33 -25
9 -5 71 -47 137 -92 67 -46 124 -83 127 -83 3 0 12 -7 21 -15 8 -9 41 -33 72
-54 31 -21 69 -51 85 -66 16 -15 46 -36 68 -47 21 -11 38 -24 38 -29 0 -5 11
-14 25 -19 14 -5 25 -15 25 -21 0 -6 7 -9 14 -6 9 4 17 -1 20 -11 3 -9 26 -30
51 -45 25 -16 45 -33 45 -39 0 -5 4 -7 9 -4 4 3 16 -3 26 -14 10 -11 24 -20
31 -20 7 0 35 -21 63 -46 27 -25 51 -44 53 -42 2 2 16 -9 31 -24 16 -16 31
-28 35 -28 4 0 24 -16 46 -35 21 -19 42 -35 46 -35 5 0 25 -16 44 -35 20 -19
40 -35 44 -35 5 0 33 -21 63 -46 30 -26 76 -65 103 -88 27 -22 66 -56 86 -73
21 -18 42 -33 48 -33 6 0 17 -8 24 -18 7 -10 27 -27 43 -38 17 -10 36 -24 43
-31 7 -7 17 -13 22 -13 5 0 12 -9 15 -20 3 -11 13 -20 20 -20 8 0 21 -10 29
-22 9 -12 16 -19 16 -14 0 5 9 -1 20 -14 11 -13 20 -20 20 -17 0 4 17 -9 38
-28 20 -19 49 -46 64 -60 15 -14 30 -25 35 -25 4 0 25 -18 45 -39 20 -22 38
-37 41 -35 2 3 12 -7 21 -21 9 -14 21 -23 26 -20 5 3 15 -3 22 -15 7 -11 18
-20 25 -20 7 0 13 -4 13 -8 0 -12 69 -82 81 -82 9 0 44 -31 139 -121 27 -26
51 -44 54 -41 4 3 6 -2 6 -11 0 -10 5 -17 11 -17 6 0 29 -19 52 -43 23 -23 54
-49 70 -56 15 -8 27 -21 27 -29 0 -7 14 -19 30 -25 17 -7 30 -19 30 -28 0 -10
4 -19 9 -21 32 -12 242 -208 235 -220 -3 -4 -1 -8 5 -8 15 0 62 -42 138 -122
9 -10 19 -15 23 -13 4 3 10 -4 13 -15 3 -11 12 -20 20 -20 8 0 18 -11 21 -24
3 -14 15 -28 26 -31 11 -3 20 -13 20 -21 0 -8 6 -14 14 -14 7 0 23 -13 36 -30
13 -16 29 -30 36 -30 8 0 17 -12 20 -26 4 -16 12 -23 20 -20 9 3 14 -1 14 -12
0 -9 9 -23 20 -30 11 -7 20 -19 20 -28 0 -9 5 -14 12 -12 15 5 68 -44 68 -63
0 -11 2 -11 10 1 8 13 10 13 10 -2 0 -9 11 -25 25 -36 25 -20 35 -40 13 -26
-7 4 -8 3 -4 -5 4 -7 13 -10 19 -8 16 6 57 -32 51 -47 -2 -6 10 -17 27 -25 17
-8 34 -22 36 -32 3 -10 9 -17 13 -14 7 4 20 -22 24 -50 1 -5 9 -9 19 -7 10 2
17 -3 17 -13 0 -9 9 -15 21 -15 18 0 20 -4 15 -25 -4 -14 -2 -25 4 -25 5 0 10
8 11 18 0 13 2 12 9 -5 5 -13 14 -23 19 -23 6 0 13 -11 17 -25 3 -14 10 -22
15 -19 5 3 6 -2 3 -11 -5 -11 0 -18 15 -22 11 -3 21 -11 21 -18 0 -7 15 -20
33 -29 17 -8 26 -16 20 -16 -19 0 -16 -20 3 -20 32 0 57 -43 32 -53 -7 -3 2
-11 20 -18 17 -8 32 -19 32 -26 0 -7 8 -13 18 -13 9 0 24 -15 33 -33 9 -18 23
-31 31 -29 11 1 14 -5 12 -23 -2 -19 2 -25 14 -23 9 2 18 -7 23 -22 4 -14 8
-20 8 -15 1 6 8 1 16 -9 8 -11 15 -16 15 -11 0 18 29 -31 30 -50 0 -17 2 -17
10 -5 8 12 10 11 10 -6 0 -20 24 -40 43 -36 4 1 4 -10 1 -24 -5 -18 -3 -25 4
-20 6 3 13 -3 17 -14 7 -23 20 -26 29 -7 3 6 4 -1 1 -16 -7 -34 3 -56 16 -36
6 10 9 7 9 -11 0 -29 17 -50 39 -50 13 0 13 2 3 9 -11 6 -9 9 6 13 15 4 18 1
15 -13 -3 -11 0 -25 6 -33 9 -11 6 -15 -14 -20 -16 -4 -23 -11 -19 -18 4 -7 3
-8 -4 -4 -7 4 -12 14 -12 22 0 23 -36 54 -49 41 -7 -7 -12 2 -17 31 -4 23 -11
39 -16 36 -5 -3 -7 -13 -4 -23 5 -14 4 -13 -8 2 -7 9 -18 17 -25 17 -7 0 -10
10 -7 24 3 18 1 23 -9 20 -8 -3 -12 1 -12 13 1 10 -5 18 -13 18 -8 0 -19 9
-24 20 l-8 20 -8 -20 c-7 -19 -7 -19 -14 3 -4 12 -11 20 -16 17 -5 -3 -10 5
-12 17 -2 13 -9 22 -16 20 -6 -1 -12 8 -12 19 0 18 -2 19 -15 9 -12 -10 -15
-10 -15 0 0 8 -3 10 -7 7 -4 -4 -12 6 -19 23 -7 16 -18 30 -24 30 -15 0 -53
40 -37 40 6 0 -3 8 -20 16 -18 9 -30 20 -27 25 10 17 -7 31 -22 18 -11 -9 -14
-7 -14 11 0 18 -3 20 -14 11 -11 -9 -13 -6 -9 16 3 24 2 25 -6 8 -8 -18 -10
-17 -17 13 -4 19 -10 29 -14 22 -7 -12 -90 62 -90 80 0 5 -6 10 -12 10 -7 0
-22 13 -33 29 -10 16 -22 28 -26 25 -11 -6 -31 24 -24 36 3 6 -3 10 -14 10
-12 0 -21 7 -21 15 0 8 -9 15 -20 15 -13 0 -18 5 -14 15 4 10 0 15 -14 15 -11
0 -30 13 -42 30 -12 16 -24 29 -28 27 -12 -3 -52 36 -52 51 0 8 -6 12 -15 8
-9 -3 -15 0 -15 9 0 8 -4 15 -10 15 -5 0 -35 27 -67 59 -89 91 -154 153 -195
186 -14 11 -24 23 -21 28 2 4 0 6 -4 5 -11 -4 -83 58 -83 71 0 5 -9 11 -21 14
-13 4 -18 10 -13 18 4 8 3 10 -5 5 -6 -4 -27 8 -49 31 -20 21 -66 63 -102 93
-36 30 -69 61 -73 67 -4 7 -12 13 -18 13 -5 0 -32 22 -58 48 -26 26 -76 72
-111 102 -35 30 -71 62 -80 70 -9 8 -38 33 -64 55 -26 22 -61 52 -77 68 -16
15 -32 27 -35 27 -2 0 -19 13 -37 29 -102 92 -173 151 -180 151 -5 0 -20 14
-34 30 -13 17 -28 30 -33 30 -9 0 -61 43 -95 78 -12 12 -26 22 -31 22 -5 0
-22 12 -39 26 -16 14 -39 33 -50 42 -11 10 -54 44 -95 77 -41 32 -77 61 -80
64 -6 7 -46 38 -175 136 -49 37 -91 72 -93 76 -2 5 -10 9 -18 9 -8 0 -17 7
-20 15 -4 8 -10 13 -14 10 -4 -3 -10 1 -13 8 -3 8 -29 30 -59 50 -52 36 -180
131 -247 185 -39 31 -136 100 -233 167 -37 25 -73 52 -80 59 -7 7 -42 32 -78
56 -36 24 -69 48 -75 54 -16 17 -124 86 -134 86 -6 0 -14 6 -18 13 -4 6 -28
26 -53 42 -25 16 -48 34 -52 40 -4 5 -8 6 -8 2 0 -5 -13 2 -29 15 -16 12 -45
33 -63 46 -102 70 -168 112 -175 112 -4 1 -24 14 -43 30 -19 17 -39 30 -44 30
-5 0 -19 8 -30 18 -12 10 -56 41 -100 68 -102 64 -118 74 -163 105 -21 14 -72
45 -113 69 -41 24 -83 51 -94 59 -10 9 -21 15 -25 14 -3 -1 -16 7 -29 17 -12
11 -25 20 -29 20 -8 0 -134 75 -178 105 -16 12 -43 27 -60 35 -16 8 -44 25
-61 37 -17 13 -34 23 -38 23 -3 0 -35 17 -69 39 -34 21 -87 52 -117 68 -30 16
-73 41 -95 55 -65 40 -135 78 -146 78 -6 0 -25 11 -42 24 -18 13 -57 36 -87
50 -73 35 -114 58 -120 66 -3 4 -24 15 -47 25 -24 11 -43 22 -43 25 0 4 -18
13 -40 20 -22 7 -40 17 -40 22 0 4 -6 8 -14 8 -13 0 -105 47 -116 59 -7 8 -68
38 -102 50 -16 6 -28 15 -28 21 0 6 -3 9 -7 7 -5 -3 -44 15 -88 39 -44 23
-105 55 -135 69 -30 15 -71 35 -91 46 -20 10 -39 16 -43 12 -3 -3 -6 -1 -6 5
0 7 -9 12 -20 12 -11 0 -20 5 -20 10 0 6 -5 10 -10 10 -6 0 -28 11 -49 24 -21
14 -41 22 -44 19 -3 -3 -16 4 -28 16 -12 11 -26 18 -31 15 -4 -3 -8 0 -8 6 0
7 -7 9 -15 6 -9 -3 -18 1 -22 10 -3 8 -12 13 -20 10 -9 -4 -17 2 -20 15 -4 13
-8 17 -13 9 -5 -8 -11 -8 -21 3 -8 7 -20 12 -27 9 -6 -2 -15 3 -18 11 -3 8
-13 13 -22 10 -10 -2 -33 10 -54 30 -21 19 -38 31 -38 26 0 -14 -27 -11 -42 5
-8 7 -24 17 -36 20 -12 4 -22 15 -22 24 0 14 -2 14 -9 3 -5 -7 -14 -10 -21 -6
-9 6 -10 9 0 15 7 5 2 8 -14 8 -15 0 -35 9 -45 21 -14 15 -20 18 -24 9 -3 -9
-11 -5 -26 12 -19 20 -24 22 -31 10 -7 -10 -10 -11 -10 -2 0 6 -7 12 -15 12
-10 0 -15 7 -13 17 3 15 -4 17 -37 14 -33 -2 -37 -1 -27 12 15 18 0 33 -38 39
-15 2 -24 9 -22 18 2 11 -1 11 -11 -2 -19 -24 -30 -23 -22 2 5 14 2 20 -9 20
-9 0 -16 5 -16 11 0 5 -4 7 -10 4 -6 -4 -10 5 -10 19 0 34 -16 33 -29 -1 l-11
-28 5 28 c5 23 2 28 -12 25 -10 -1 -24 1 -32 6 -11 7 -12 6 -6 -5 7 -12 6 -12
-7 -1 -12 10 -15 24 -11 50 l5 37 -15 -27 c-9 -15 -18 -35 -21 -45 -3 -10 -4
-6 -2 10 2 15 -2 27 -8 28 -66 5 -75 12 -57 40 15 25 7 37 -14 19 -10 -8 -15
-9 -15 -1 0 6 -9 20 -20 31 -19 19 -19 19 -15 -13 l5 -32 -10 33 c-6 18 -15
30 -21 26 -6 -3 -13 3 -16 15 -4 17 -9 19 -24 10 -13 -6 -19 -6 -19 1 0 5 -8
19 -17 30 -13 14 -20 17 -30 8 -10 -8 -13 -7 -13 5 0 9 -5 19 -12 23 -7 4 -8
3 -4 -4 14 -24 -22 -11 -51 17 -17 16 -45 32 -62 36 -17 4 -31 12 -31 20 0 7
-13 15 -29 18 -16 3 -35 13 -43 21 -9 8 -24 12 -37 9 -17 -4 -21 -1 -21 17 0
17 -4 20 -19 15 -14 -4 -29 4 -52 26 -19 18 -35 27 -37 21 -2 -8 -8 -7 -19 3
-8 8 -19 13 -24 10 -5 -4 -9 1 -9 10 0 9 -4 13 -10 10 -5 -3 -10 -1 -10 5 0 6
-4 8 -10 5 -5 -3 -10 0 -10 7 0 9 -3 9 -10 -2 -7 -12 -10 -12 -10 -1 0 7 -6
11 -13 8 -18 -7 -61 29 -45 37 7 3 4 4 -7 3 -24 -4 -91 27 -98 45 -3 7 -6 4
-6 -7 -1 -17 -3 -17 -11 -5 -5 8 -10 11 -10 6 0 -5 -9 1 -19 13 -11 12 -22 22
-25 22 -20 -3 -26 1 -27 17 0 10 -3 12 -6 5 -7 -19 -31 -16 -54 6 -11 10 -31
18 -44 16 -16 -1 -25 4 -29 17 -2 11 -9 17 -15 13 -6 -3 -11 1 -11 10 0 12 -5
15 -17 11 -9 -4 -20 -1 -25 6 -6 11 -8 10 -8 0 0 -7 -5 -10 -10 -7 -6 4 -8 11
-4 16 3 5 0 8 -7 7 -7 -2 -16 8 -20 22 l-7 25 -1 -25 c-1 -14 -4 -20 -9 -14
-4 6 -17 15 -30 18 -18 6 -21 11 -12 21 7 8 9 19 5 25 -10 16 15 12 32 -6z
m280 -3476 c-3 -8 -6 -5 -6 6 -1 11 2 17 5 13 3 -3 4 -12 1 -19z m1883 -1805
l25 -28 -35 30 c-55 47 -56 48 -35 37 11 -6 31 -23 45 -39z m86 -75 l29 -33
-32 29 c-18 17 -33 31 -33 33 0 8 8 1 36 -29z m74 -63 c13 -14 21 -25 18 -25
-2 0 -15 11 -28 25 -13 14 -21 25 -18 25 2 0 15 -11 28 -25z m1892 -97 c-8 -8
-9 -4 -5 13 4 13 8 18 11 10 2 -7 -1 -18 -6 -23z m-1748 -37 c-3 -3 -15 6 -27
18 l-22 24 27 -19 c14 -10 24 -21 22 -23z m61 -51 c10 -11 16 -20 13 -20 -3 0
-13 9 -23 20 -10 11 -16 20 -13 20 3 0 13 -9 23 -20z m1679 12 c3 -5 -1 -9 -9
-9 -8 0 -15 4 -15 9 0 4 4 8 9 8 6 0 12 -4 15 -8z m18 -61 c-3 -19 1 -22 20
-19 20 3 23 -1 20 -24 -2 -23 1 -26 23 -23 20 2 24 -1 20 -15 -3 -10 0 -17 9
-17 8 0 12 6 9 14 -3 7 0 13 6 13 6 0 12 -13 12 -30 2 -42 3 -47 12 -56 4 -4
7 -2 7 4 0 7 12 12 28 12 19 0 23 -3 13 -9 -15 -10 -7 -31 13 -31 8 0 21 -11
30 -25 15 -23 15 -25 -7 -40 l-22 -17 24 7 c27 8 41 -7 41 -47 0 -34 9 -58 22
-58 13 0 35 -27 48 -57 11 -27 30 -30 31 -5 1 11 4 8 8 -8 4 -14 14 -24 21
-22 8 2 11 -6 8 -25 -3 -23 0 -28 19 -29 13 -1 20 2 17 7 -3 5 0 9 6 9 8 0 9
-11 5 -31 -5 -23 -4 -30 5 -24 9 5 10 2 5 -14 -4 -12 -2 -21 4 -21 6 0 11 -4
11 -10 0 -5 -7 -7 -15 -4 -12 5 -15 -2 -14 -27 0 -26 2 -30 8 -15 6 16 9 17
16 5 7 -11 11 -8 16 11 7 23 7 23 8 -7 1 -18 7 -36 14 -40 11 -7 37 -52 43
-75 1 -5 3 -11 4 -15 1 -5 2 -11 1 -15 0 -5 6 -8 14 -8 15 0 19 -16 16 -52 -1
-10 2 -18 8 -18 6 0 8 7 5 15 -4 8 -3 15 1 15 13 0 34 -34 35 -56 0 -12 7 -24
15 -28 9 -3 12 -12 8 -22 -4 -12 -3 -15 5 -10 8 5 12 0 12 -13 0 -12 5 -21 11
-21 7 0 9 -10 5 -25 -5 -21 -3 -25 14 -25 12 0 20 -6 19 -12 -3 -26 3 -73 8
-60 9 23 22 1 16 -29 -5 -24 -3 -28 11 -23 16 6 22 -15 16 -55 -1 -8 4 -12 14
-8 19 8 26 -14 9 -31 -7 -7 -13 -18 -13 -23 0 -6 7 -3 16 5 17 18 44 21 44 6
0 -5 -7 -10 -16 -10 -9 0 -12 -5 -8 -12 4 -6 -2 -18 -12 -26 -15 -12 -16 -14
-2 -9 9 3 19 1 22 -6 2 -7 5 -1 5 13 1 20 3 22 11 10 8 -12 10 -12 10 -1 0 8
3 11 6 8 4 -4 1 -13 -6 -22 -10 -12 -8 -21 13 -49 19 -24 23 -36 15 -44 -8 -8
-5 -14 12 -20 15 -6 19 -11 12 -16 -17 -10 -15 -56 3 -62 8 -4 15 -12 15 -19
0 -7 7 -16 16 -19 8 -3 13 -10 9 -15 -3 -5 -1 -12 4 -15 5 -4 12 2 15 11 3 10
4 -16 2 -57 -3 -43 -1 -60 3 -40 l6 35 28 -29 c34 -36 36 -58 2 -26 -25 24
-36 13 -12 -12 21 -23 20 -56 -3 -63 -16 -5 -18 -10 -10 -25 13 -24 13 -63 0
-55 -5 3 -6 13 -3 21 3 9 -3 21 -17 31 -17 12 -19 17 -9 24 11 6 10 9 -4 15
-9 3 -17 11 -17 16 0 6 7 8 15 4 22 -8 18 11 -5 31 -11 10 -20 29 -20 43 0 19
-2 22 -10 10 -5 -8 -6 -26 -3 -40 6 -23 5 -24 -10 -8 -9 9 -14 23 -11 31 3 8
1 18 -5 22 -6 3 -11 1 -11 -6 0 -7 -7 -4 -15 7 -8 10 -15 29 -15 42 0 13 -4
20 -10 17 -6 -3 -10 4 -10 16 0 12 -3 20 -6 16 -8 -8 -44 25 -38 35 3 4 0 8
-6 8 -7 0 -10 7 -6 15 3 9 0 15 -9 15 -8 0 -21 16 -29 35 -8 19 -20 35 -26 35
-6 0 -9 4 -6 9 3 5 -3 11 -14 14 -11 3 -20 10 -20 17 0 6 5 8 10 5 6 -3 10 1
10 10 0 9 -4 13 -10 10 -5 -3 -10 -1 -10 4 0 6 -6 10 -12 8 -9 -1 -12 9 -11
33 1 19 0 29 -3 23 -9 -20 -24 -15 -24 8 0 11 -4 18 -9 14 -5 -3 -12 -1 -16 5
-4 6 -12 7 -18 3 -8 -5 -8 -2 1 9 10 12 9 21 -3 44 -8 16 -15 36 -16 44 0 10
-2 11 -6 3 -2 -7 -9 -13 -14 -13 -6 0 -8 4 -5 9 3 5 -1 12 -10 15 -8 3 -12 10
-9 16 7 11 -17 40 -33 40 -13 0 -23 27 -16 45 6 13 -6 20 -28 16 -5 0 -8 8 -8
20 0 11 5 17 10 14 6 -3 10 -1 10 4 0 6 -7 11 -15 11 -9 0 -15 9 -15 21 0 14
-5 19 -15 16 -14 -6 -44 41 -46 72 0 12 -3 11 -8 -4 -7 -16 -10 -11 -16 25 -4
25 -10 39 -12 32 -3 -6 -9 -10 -13 -7 -5 3 -6 13 -3 22 4 11 3 14 -5 9 -7 -4
-12 -1 -12 8 0 9 -4 16 -10 16 -5 0 -10 9 -10 20 0 11 -9 25 -20 32 -11 7 -20
20 -20 29 0 9 -9 28 -20 42 -11 14 -20 38 -21 54 -1 28 -1 28 -9 3 -7 -24 -7
-23 -15 13 -4 20 -13 37 -19 37 -6 0 -13 14 -14 32 -2 18 -6 35 -11 38 -4 3
-11 12 -15 20 -3 8 -4 3 -1 -12 3 -16 1 -28 -4 -28 -10 0 -22 49 -23 92 -1 15
-6 29 -12 31 -14 6 -20 107 -6 107 5 0 10 5 10 11 0 18 -30 -11 -31 -30 0 -10
-4 -7 -12 9 -16 36 -16 36 -33 14 -14 -18 -15 -18 -9 6 4 14 14 31 23 38 9 7
11 12 4 12 -16 0 -15 27 1 33 6 3 2 6 -10 6 -12 1 -25 6 -28 12 -4 6 -13 8
-21 5 -8 -3 -14 -2 -14 3 0 9 29 36 39 36 3 0 5 15 5 33 -1 17 3 32 8 32 6 0
8 9 5 21 -3 13 -1 19 6 16 7 -2 11 -14 9 -26z m-50 -21 c-8 -21 -9 -22 -16 -5
-4 11 -2 22 6 26 17 11 20 6 10 -21z m155 -22 c-3 -7 -5 -2 -5 12 0 14 2 19 5
13 2 -7 2 -19 0 -25z m-180 -10 c-3 -8 -6 -5 -6 6 -1 11 2 17 5 13 3 -3 4 -12
1 -19z m253 -12 c0 -3 -4 -8 -10 -11 -5 -3 -10 -1 -10 4 0 6 5 11 10 11 6 0
10 -2 10 -4z m-240 -16 c0 -5 -5 -10 -11 -10 -5 0 -7 5 -4 10 3 6 8 10 11 10
2 0 4 -4 4 -10z m216 -25 c13 -13 13 -15 1 -15 -8 0 -17 7 -21 15 -3 8 -3 15
0 15 3 0 12 -7 20 -15z m-186 -44 c0 -6 -9 -9 -20 -8 -11 1 -20 5 -20 9 0 4 9
8 20 8 11 0 20 -4 20 -9z m15 -31 c-3 -5 -11 -10 -16 -10 -6 0 -7 5 -4 10 3 6
11 10 16 10 6 0 7 -4 4 -10z m40 -129 c-8 -14 -25 -14 -25 0 0 5 5 7 10 4 6
-3 10 -1 10 6 0 7 3 10 6 6 3 -3 3 -10 -1 -16z m282 -10 c-1 -17 -6 -26 -10
-21 -8 7 -1 50 8 50 2 0 3 -13 2 -29z m-1572 -31 c10 -11 16 -20 13 -20 -3 0
-13 9 -23 20 -10 11 -16 20 -13 20 3 0 13 -9 23 -20z m1608 -5 c-3 -9 -8 -14
-10 -11 -3 3 -2 9 2 15 9 16 15 13 8 -4z m17 -34 c0 -6 -4 -13 -10 -16 -5 -3
-10 1 -10 9 0 9 5 16 10 16 6 0 10 -4 10 -9z m147 -258 c-3 -10 -5 -4 -5 12 0
17 2 24 5 18 2 -7 2 -21 0 -30z m20 15 c-3 -8 -6 -5 -6 6 -1 11 2 17 5 13 3
-3 4 -12 1 -19z m4520 -10 c-3 -7 -5 -2 -5 12 0 14 2 19 5 13 2 -7 2 -19 0
-25z m84 -104 c8 -9 14 -24 14 -33 0 -10 7 -15 18 -13 9 2 17 -2 17 -8 0 -5
-11 -10 -25 -10 -19 0 -25 5 -26 23 -1 21 -1 21 -9 -3 -7 -22 -8 -20 -10 15
-1 30 -3 35 -9 21 -5 -14 -10 -16 -15 -8 -18 29 22 43 45 16z m100 -148 c11 6
11 4 0 -10 -11 -13 -16 -14 -22 -4 -5 7 -9 18 -9 23 0 6 4 4 9 -4 5 -8 14 -10
22 -5z m39 -27 c0 -5 -4 -9 -10 -9 -5 0 -10 7 -10 16 0 8 5 12 10 9 6 -3 10
-10 10 -16z m-4555 -79 c3 -5 1 -10 -4 -10 -6 0 -11 5 -11 10 0 6 2 10 4 10 3
0 8 -4 11 -10z m4712 -112 c-3 -8 -6 -5 -6 6 -1 11 2 17 5 13 3 -3 4 -12 1
-19z m-4497 -368 c0 -5 -7 -10 -15 -10 -8 0 -15 5 -15 10 0 6 7 10 15 10 8 0
15 -4 15 -10z m140 -250 c0 -5 -2 -10 -4 -10 -3 0 -8 5 -11 10 -3 6 -1 10 4
10 6 0 11 -4 11 -10z m-40 -34 c0 -8 -7 -16 -15 -20 -9 -3 -15 0 -15 10 0 8 5
12 10 9 6 -3 10 -1 10 4 0 6 2 11 5 11 3 0 5 -6 5 -14z m30 -26 c0 -10 6 -21
13 -24 10 -5 10 -7 0 -12 -7 -3 -13 -11 -13 -19 0 -7 -6 -17 -13 -23 -9 -8
-12 1 -10 41 2 70 2 69 13 62 6 -3 10 -15 10 -25z m60 -80 c0 -5 -4 -10 -10
-10 -5 0 -10 5 -10 10 0 6 5 10 10 10 6 0 10 -4 10 -10z m-38 -69 c-4 -11 -8
-7 -15 12 -5 15 -13 25 -18 21 -10 -6 -12 9 -3 19 10 10 42 -36 36 -52z m22
43 c14 -14 22 -34 13 -34 -2 0 -13 11 -25 25 -24 27 -13 35 12 9z m60 -30 c4
-10 1 -14 -6 -12 -15 5 -23 28 -10 28 5 0 13 -7 16 -16z m-27 -80 c-13 -13
-23 7 -19 38 l6 33 9 -33 c6 -18 7 -35 4 -38z m33 -34 c0 -5 -4 -10 -10 -10
-5 0 -10 5 -10 10 0 6 5 10 10 10 6 0 10 -4 10 -10z m50 -50 c0 -5 -8 -10 -17
-10 -15 0 -16 2 -3 10 19 12 20 12 20 0z m28 -30 c-14 -22 -24 -19 -15 5 4 8
11 15 17 15 6 0 6 -7 -2 -20z m26 -45 c-4 -8 -10 -15 -15 -15 -4 0 -6 7 -3 15
4 8 10 15 15 15 4 0 6 -7 3 -15z m13 -47 c-3 -8 -6 -5 -6 6 -1 11 2 17 5 13 3
-3 4 -12 1 -19z m65 -117 c8 12 9 12 6 0 -6 -22 -28 -25 -27 -4 0 12 2 14 6 4
5 -11 7 -11 15 0z m38 -33 c0 6 4 12 10 12 14 0 1 -27 -16 -34 -9 -4 -14 2
-14 17 0 18 2 19 10 7 6 -10 10 -11 10 -2z m40 -43 c0 -8 -6 -15 -12 -15 -9 0
-8 -4 2 -10 8 -5 10 -10 4 -10 -21 0 -35 25 -22 38 16 16 28 15 28 -3z m70
-91 c0 -2 -7 -4 -15 -4 -8 0 -15 4 -15 10 0 5 7 7 15 4 8 -4 15 -8 15 -10z
m74 -149 c3 -8 1 -15 -4 -15 -6 0 -10 7 -10 15 0 8 2 15 4 15 2 0 6 -7 10 -15z
m16 -45 c0 -5 -4 -10 -10 -10 -5 0 -10 5 -10 10 0 6 5 10 10 10 6 0 10 -4 10
-10z m60 -87 c-11 -17 -11 -17 -6 0 3 10 6 24 7 30 0 9 2 9 5 0 3 -7 0 -20 -6
-30z m40 -56 c0 -5 -4 -5 -10 -2 -5 3 -10 14 -10 23 0 15 2 15 10 2 5 -8 10
-19 10 -23z m84 -137 c7 -24 6 -24 -8 -6 -9 11 -16 27 -16 35 0 21 16 2 24
-29z m46 -36 c0 -2 -7 -4 -15 -4 -8 0 -15 4 -15 10 0 5 7 7 15 4 8 -4 15 -8
15 -10z m-20 -24 c0 -5 -2 -10 -4 -10 -3 0 -8 5 -11 10 -3 6 -1 10 4 10 6 0
11 -4 11 -10z m77 -132 c-3 -8 -6 -5 -6 6 -1 11 2 17 5 13 3 -3 4 -12 1 -19z
m111 -166 c4 -14 0 -15 -22 -6 -9 3 -16 10 -16 14 0 12 33 5 38 -8z m107 -171
c3 -5 1 -12 -5 -16 -5 -3 -10 1 -10 9 0 18 6 21 15 7z m35 -91 c0 -5 -4 -10
-10 -10 -5 0 -10 5 -10 10 0 6 5 10 10 10 6 0 10 -4 10 -10z m60 -81 c0 -6 -4
-7 -10 -4 -5 3 -10 11 -10 16 0 6 5 7 10 4 6 -3 10 -11 10 -16z m270 -489 c0
-5 -4 -10 -10 -10 -5 0 -10 5 -10 10 0 6 5 10 10 10 6 0 10 -4 10 -10z"/>
<path d="M25511 24084 c0 -11 3 -14 6 -6 3 7 2 16 -1 19 -3 4 -6 -2 -5 -13z"/>
<path d="M44525 17541 c-3 -12 -11 -21 -16 -21 -6 0 -7 -5 -3 -11 4 -8 12 -2
21 15 8 15 12 30 10 33 -3 2 -8 -5 -12 -16z"/>
<path d="M44673 17425 c-3 -9 -3 -18 -1 -21 3 -3 8 4 11 16 6 23 -1 27 -10 5z"/>
<path d="M39810 17825 c0 -9 5 -13 10 -10 15 9 25 -24 11 -38 -8 -8 -11 -8
-11 2 0 7 -5 9 -10 6 -6 -4 -8 -10 -5 -15 3 -4 -1 -11 -7 -14 -7 -3 -2 -3 12
0 14 4 27 10 30 15 3 5 12 0 20 -11 17 -23 30 -26 30 -6 0 7 -10 16 -21 19
-18 5 -21 11 -16 39 3 18 3 27 1 21 -4 -9 -11 -10 -25 -3 -15 9 -19 7 -19 -5z"/>
<path d="M39911 17724 c0 -11 3 -14 6 -6 3 7 2 16 -1 19 -3 4 -6 -2 -5 -13z"/>
<path d="M40000 17665 c0 -18 19 -40 26 -32 4 4 0 15 -9 24 -9 10 -17 13 -17
8z"/>
<path d="M39961 17634 c0 -11 3 -14 6 -6 3 7 2 16 -1 19 -3 4 -6 -2 -5 -13z"/>
<path d="M40015 17570 c-3 -5 1 -10 10 -10 9 0 13 5 10 10 -3 6 -8 10 -10 10
-2 0 -7 -4 -10 -10z"/>
<path d="M40190 17379 c0 -5 5 -7 10 -4 6 3 10 8 10 11 0 2 -4 4 -10 4 -5 0
-10 -5 -10 -11z"/>
<path d="M40242 17310 c0 -14 2 -19 5 -12 2 6 2 18 0 25 -3 6 -5 1 -5 -13z"/>
<path d="M40640 16500 c0 -12 28 -25 36 -17 3 3 -4 10 -15 17 -15 7 -21 7 -21
0z"/>
<path d="M40691 16334 c0 -11 3 -14 6 -6 3 7 2 16 -1 19 -3 4 -6 -2 -5 -13z"/>
<path d="M40710 16325 c0 -8 -4 -15 -10 -15 -5 0 -10 -4 -10 -10 0 -5 7 -10
15 -10 8 0 15 4 15 9 0 5 3 16 6 25 3 9 1 16 -5 16 -6 0 -11 -7 -11 -15z"/>
<path d="M40717 16274 c-4 -4 -4 -10 -1 -15 6 -10 34 0 34 12 0 10 -24 12 -33
3z"/>
<path d="M40750 16210 c0 -5 5 -10 10 -10 6 0 10 5 10 10 0 6 -4 10 -10 10 -5
0 -10 -4 -10 -10z"/>
</g>
</svg>
