<?xml version="1.0" encoding="UTF-8" standalone="no"?>
<!-- Created with Inkscape (http://www.inkscape.org/) -->

<svg
   width="214.02119"
   height="73.466057"
   viewBox="0 0 214.02119 73.466057"
   version="1.1"
   id="SVGRoot"
   sodipodi:docname="light.svg"
   xmlns:inkscape="http://www.inkscape.org/namespaces/inkscape"
   xmlns:sodipodi="http://sodipodi.sourceforge.net/DTD/sodipodi-0.dtd"
   xmlns="http://www.w3.org/2000/svg"
   xmlns:svg="http://www.w3.org/2000/svg">
  <sodipodi:namedview
     id="namedview3515"
     pagecolor="#ffffff"
     bordercolor="#000000"
     borderopacity="0.25"
     inkscape:showpageshadow="2"
     inkscape:pageopacity="0.0"
     inkscape:pagecheckerboard="0"
     inkscape:deskcolor="#d1d1d1"
     inkscape:document-units="px"
     showgrid="true"
     inkscape:zoom="0.25"
     inkscape:cx="30.0"
     inkscape:cy="30.0"
     inkscape:window-width="1366"
     inkscape:window-height="768"
     inkscape:window-x="0"
     inkscape:window-y="0"
     inkscape:window-maximized="0"
     inkscape:current-layer="layer1">
    <inkscape:grid
       type="xygrid"
       id="grid3521" />
  </sodipodi:namedview>
  <defs
     id="defs3510" />
  <g
     inkscape:label="Layer 1"
     inkscape:groupmode="layer"
     id="layer1"
     transform="translate(-157.54147,-487.55233)">
    <g
       aria-label="Bill∞p
"
       transform="scale(1.0168294,0.98344914)"
       id="text3534"
       style="font-size:79.9742px;font-family:Poppins;-inkscape-font-specification:'Poppins, Normal';fill:#312e81;stroke-width:0.937196">
      <path
         d="m 154.93403,554.13715 v -58.18436 h 21.20409 q 5.85749,0 10.07488,1.91345 4.21739,1.87439 6.44323,5.34984 2.26489,3.43639 2.26489,8.16142 0,3.31925 -1.13244,5.81844 -1.13245,2.46014 -3.28019,4.13929 -2.1087,1.64009 -5.11554,2.61634 v 0.0781 q 3.35829,0.5467 6.05273,2.22585 2.69445,1.64009 4.25644,4.52979 1.60105,2.85064 1.60105,7.02898 0,4.95933 -2.30395,8.63003 -2.26489,3.67069 -6.91183,5.70128 -4.60789,1.99155 -11.55877,1.99155 z m 7.38043,-6.48229 h 14.05796 q 6.48228,0 9.91868,-2.42109 3.47544,-2.46015 3.47544,-7.22423 0,-3.16305 -1.52295,-5.42794 -1.52295,-2.30394 -4.41264,-3.55354 -2.88969,-1.2496 -7.06803,-1.2496 h -14.44846 z m 0,-26.28058 h 13.97986 q 3.55354,0 6.09179,-1.13245 2.53824,-1.1715 3.86594,-3.28019 1.32769,-2.14774 1.32769,-5.03744 0,-4.37359 -2.96779,-6.91183 -2.96779,-2.57729 -8.31763,-2.57729 h -13.97986 z"
         style="font-family:Inter;-inkscape-font-specification:'Inter, @opsz=32.0,wght=423';font-variation-settings:'opsz' 32, 'wght' 423;fill:#030303"
         id="path342" />
      <path
         d="m 205.19125,554.13715 v -41.2367 h 7.02898 v 41.2367 z m 3.51449,-49.04668 q -1.91345,0 -3.31924,-1.36675 -1.36675,-1.36674 -1.36675,-3.31924 0,-1.91344 1.36675,-3.28019 1.40579,-1.36675 3.31924,-1.36675 1.95249,0 3.31924,1.36675 1.36675,1.36675 1.36675,3.31924 0,1.91345 -1.36675,3.28019 -1.36675,1.36675 -3.31924,1.36675 z"
         style="font-family:Inter;-inkscape-font-specification:'Inter, @opsz=32.0,wght=423';font-variation-settings:'opsz' 32, 'wght' 423;fill:#030303"
         id="path344" />
      <path
         d="m 228.93359,495.95279 v 58.18436 h -7.02899 v -58.18436 z"
         style="font-family:Inter;-inkscape-font-specification:'Inter, @opsz=32.0,wght=423';font-variation-settings:'opsz' 32, 'wght' 423;fill:#030303"
         id="path346" />
      <path
         d="m 245.64694,495.95279 v 58.18436 h -7.02898 v -58.18436 z"
         style="font-family:Inter;-inkscape-font-specification:'Inter, @opsz=32.0,wght=423';font-variation-settings:'opsz' 32, 'wght' 423;fill:#030303"
         id="path348" />
      <path
         d="m 269.11594,513.68145 q 3.12399,-0.0391 5.70128,0.89815 2.61635,0.89814 4.72504,2.34299 2.1087,1.44485 3.70974,3.04589 0.97625,0.89815 1.83535,1.8744 0.8591,0.9372 1.56199,1.83534 0.66385,-0.89814 1.4058,-1.75724 0.781,-0.89815 1.9525,-1.9525 2.42109,-2.42109 5.93558,-4.33454 3.51449,-1.95249 8.23953,-1.95249 4.37359,0 7.92713,2.10869 3.55354,2.1087 5.66224,5.66224 2.14774,3.55354 2.14774,7.92713 0,4.41264 -2.14774,8.00523 -2.1087,3.55354 -5.66224,5.70128 -3.55354,2.1087 -7.92713,2.1087 -3.12399,0 -5.77939,-0.89815 -2.61634,-0.89815 -4.68598,-2.30394 -2.06965,-1.44485 -3.70974,-2.9678 -0.97625,-1.01529 -1.83535,-1.99154 -0.8591,-0.97625 -1.52295,-1.8744 -0.70289,0.89815 -1.56199,1.8744 -0.8591,0.97625 -1.83535,1.99154 -1.60104,1.52295 -3.70974,2.9678 -2.06964,1.40579 -4.68599,2.30394 -2.61634,0.89815 -5.74033,0.89815 -4.41264,0 -8.00523,-2.1087 -3.59259,-2.14774 -5.74034,-5.70128 -2.10869,-3.59259 -2.10869,-8.00523 0,-4.37359 2.10869,-7.92713 2.14775,-3.59259 5.74034,-5.70129 3.59259,-2.10869 8.00523,-2.06964 z m -9.09863,15.69806 q 0.039,2.49919 1.2496,4.56884 1.2496,2.06964 3.28019,3.28019 2.06964,1.21055 4.56884,1.21055 2.81159,0 5.11554,-1.2496 2.34299,-1.28865 4.29548,-3.16304 1.21055,-1.2496 2.14775,-2.4211 0.97625,-1.17149 1.75724,-2.22584 -0.78099,-0.97625 -1.71819,-2.14775 -0.89815,-1.21054 -2.1868,-2.42109 -1.87439,-1.83535 -4.25643,-3.08494 -2.343,-1.28865 -5.15459,-1.28865 -2.4992,0 -4.56884,1.2496 -2.03059,1.21055 -3.28019,3.24114 -1.21055,1.99154 -1.2496,4.45169 z m 53.10787,0 q 0.039,-2.46015 -1.1715,-4.45169 -1.21055,-2.03059 -3.28019,-3.24114 -2.0306,-1.2496 -4.49074,-1.2496 -2.85064,0 -5.23269,1.28865 -2.34299,1.24959 -4.21739,3.08494 -1.48389,1.36675 -2.49919,2.69444 -0.97625,1.3277 -1.4058,1.8744 0.781,1.05435 1.7182,2.22584 0.9372,1.1715 2.18679,2.4211 1.9525,1.87439 4.25644,3.16304 2.343,1.2496 5.19364,1.2496 2.46014,0 4.49074,-1.21055 2.06964,-1.21055 3.28019,-3.28019 1.21055,-2.06965 1.1715,-4.56884 z"
         style="font-family:Inter;-inkscape-font-specification:'Inter, @opsz=32.0,wght=423';font-variation-settings:'opsz' 32, 'wght' 423;opacity:0.971035;fill:#3d3d3d"
         id="path350" />
      <path
         d="m 327.61268,570.46 v -57.55955 h 6.87278 v 6.05274 h 0.0781 q 1.3277,-2.30395 3.31924,-3.78785 2.0306,-1.52294 4.49074,-2.26489 2.4992,-0.781 5.15459,-0.781 5.38889,0 9.41103,2.69445 4.02214,2.69444 6.24798,7.53663 2.22584,4.80313 2.22584,11.16827 0,6.32608 -2.22584,11.16827 -2.22584,4.80314 -6.24798,7.53663 -4.02214,2.69444 -9.41103,2.69444 -2.65539,0 -5.03744,-0.78099 -2.34299,-0.74195 -4.33454,-2.30395 -1.99154,-1.56199 -3.43639,-3.94404 h -0.0781 V 570.46 Z m 18.74395,-21.75079 q 3.55354,0 6.20894,-1.7182 2.69444,-1.75724 4.21739,-5.11553 1.56199,-3.39734 1.56199,-8.35668 0,-4.99839 -1.56199,-8.35668 -1.52295,-3.39734 -4.21739,-5.11554 -2.6554,-1.75724 -6.20894,-1.75724 -3.74879,0 -6.52133,1.91344 -2.73349,1.8744 -4.25644,5.31079 -1.4839,3.39734 -1.4839,8.00523 0,4.56884 1.4839,8.00523 1.52295,3.39734 4.25644,5.31078 2.77254,1.8744 6.52133,1.8744 z"
         style="font-family:Inter;-inkscape-font-specification:'Inter, @opsz=32.0,wght=423';font-variation-settings:'opsz' 32, 'wght' 423;fill:#030303"
         id="path352" />
    </g>
  </g>
</svg>
